# xmcd CD database file
#
# Track frame offsets:
#	150
#	19994
#	41858
#	65791
#	85487
#	101824
#	116904
#	137037
#	157402
#	168286
#	182148
#	197219
#
# Disc length: 2894 seconds
#
# Revision: 0
# Processed by: cddbd v1.5.2PL0 Copyright (c) Steve Scherf et al.
# Submitted via: CDex 1.51
#
DISCID=bc0b4c0c
DTITLE=Blue Rose - Detroit Boogie
DYEAR=2011
DGENRE=Blues
TTITLE0=Blue Rose - The Storm
TTITLE1=Blue Rose - Fooled Around and Fell in Love
TTITLE2=Blue Rose - Goin' Down
TTITLE3=Blue Rose - Blue Rose Boogie
TTITLE4=Blue Rose - I Believe
TTITLE5=Blue Rose - Why Don't You Let Go?
TTITLE6=Blue Rose - Mystery
TTITLE7=Blue Rose - Love Crime
TTITLE8=Blue Rose - Evil Gal Blues
TTITLE9=Blue Rose - Let It Ride
TTITLE10=Blue Rose - Shakey Ground
TTITLE11=Blue Rose - Unchain My Heart
EXTD=YEAR: 2011
EXTT0=
EXTT1=
EXTT2=
EXTT3=
EXTT4=
EXTT5=
EXTT6=
EXTT7=
EXTT8=
EXTT9=
EXTT10=
EXTT11=
PLAYORDER=
